<?xml version="1.0" encoding="UTF-8"?>
<svg xmlns="http://www.w3.org/2000/svg"
     width="429.00000000000006"
     height="99.21388697272302"
     viewBox="0 0 155.66369256600177 36.00000000000001">
  <defs>
    <linearGradient id="SvgjsLinearGradient2279">
      <stop stop-color="#ef4136" offset="0"/>
      <stop stop-color="#fbb040" offset="1"/>
    </linearGradient>
    <linearGradient id="SvgjsLinearGradient2282">
      <stop stop-color="#ef4136" offset="0"/>
      <stop stop-color="#fbb040" offset="1"/>
    </linearGradient>
  </defs>

  <g transform="matrix(0.39999972873282286,0,0,0.39999972873282286,3.0000015470706196,-1.999974229618171)">
    <g transform="translate(0,-952.36218)">
      <path d="m 71.307037,967.86414 c -6.10988,-3.795 -13.29189,-5.982 -20.996417,-5.982 -22.063949,0 -39.99318,17.972 -39.99318,40.08836 0,7.6828 2.1554,14.8518 5.905243,20.9524 -8.7954756,11.8944 -13.1124546,20.9629 -10.4357196,23.646 2.6779169,2.6843 11.7783426,-1.605 23.6522156,-10.4292 6.081813,3.7421 13.221699,5.8879 20.871441,5.8879 22.063957,0 39.993177,-17.9406 39.993177,-40.0571 0,-7.72276 -2.18168,-14.95316 -5.96773,-21.07756 8.44053,-11.5438 12.49552,-20.2973 9.87332,-22.9256 -4.53601,-3.1589 -18.83334,6.9325 -22.90235,9.8968 z m 16.4347,-3.4138 c 1.82965,1.8339 -0.14449,7.1317 -4.81168,14.3441 -2.62046,-3.6983 -5.83799,-6.9282 -9.52962,-9.5522 3.79612,-2.3736 9.9331,-7.2085 14.3413,-4.7919 z m -37.431117,1.4094 c 12.689767,0 23.807477,6.5773 30.213597,16.5051 -1.17273,1.6581 -2.48009,3.4037 -3.87434,5.199 -5.09661,-9.3399 -14.99161,-15.6596 -26.339257,-15.6596 -16.54204,0 -29.994885,13.4849 -29.994885,30.06626 0,11.3997 6.364706,21.3391 15.71607,26.4333 -1.777346,1.4005 -3.507534,2.7255 -5.155371,3.9148 -9.956706,-6.4103 -16.559676,-17.5833 -16.559676,-30.3481 0,-19.94996 16.091285,-36.11076 35.993862,-36.11076 z m 0,10.0534 c 10.469457,0 19.468507,6.1744 23.589727,15.0958 -4.72225,5.7867 -10.3796,12.06416 -16.74714,18.44686 -6.10118,6.1157 -12.110481,11.5856 -17.684488,16.1919 -8.94587,-4.1111 -15.153666,-13.1463 -15.153666,-23.6772 0,-14.41496 11.614903,-26.05736 25.995567,-26.05736 z m 31.432137,8.4561 c 2.89747,5.2037 4.56173,11.2111 4.56173,17.60126 0,19.95 -16.09129,36.0796 -35.993867,36.0796 -6.348047,0 -12.292554,-1.6598 -17.465771,-4.5412 1.667922,-1.302 3.375156,-2.7145 5.124126,-4.1655 3.769338,1.7125 7.940415,2.6934 12.341645,2.6934 16.542047,0 29.994887,-13.4849 29.994887,-30.0663 0,-4.42926 -0.96402,-8.64346 -2.68704,-12.43356 1.44453,-1.7601 2.83531,-3.4929 4.12429,-5.1677 z m -7.03005,8.6441 c 1.01207,2.788 1.59348,5.8143 1.59348,8.95716 0,14.4149 -11.6149,26.0575 -25.995567,26.0575 -3.120974,0 -6.103979,-0.5604 -8.873487,-1.566 5.44205,-4.6812 11.157874,-9.9943 16.934614,-15.7848 6.01984,-6.0342 11.51701,-12.00226 16.34096,-17.66386 z m -57.146503,31.94536 c 2.668726,3.8046 5.983691,7.1275 9.779582,9.8029 -7.587075,5.041 -13.196282,7.2237 -15.091176,5.3242 -1.895691,-1.9001 0.278011,-7.5171 5.311594,-15.1271 z"
            fill="url(#SvgjsLinearGradient2279)"
            fill-opacity="1"
            stroke="none"/>
    </g>
  </g>

  <g transform="matrix(1.2857139353850406,0,0,1.2857139353850406,42.914289497841565,-15.42855741540162)"
     fill="url(#SvgjsLinearGradient2282)">
    <path d="M2.4 12 l14 0 c0.68 0 1.32 0.28 1.8 0.76 l2.48 2.44 c0.48 0.48 0.72 1.12 0.72 1.8 l0 8.2 c0 0.68 -0.24 1.32 -0.72 1.8 l-2.32 2.28 l3.04 10.72 l-5.32 0 l-2.6 -9.08 l-0.96 -0.72 l-5 0 l0 9.8 l-5.12 0 l0 -28 z M7.52 17.12 l0 7.96 l7.84 0 l0.92 -0.96 l0 -6.04 l-0.92 -0.96 l-7.84 0 z M26.938 12 l14 0 c0.68 0 1.32 0.28 1.8 0.76 l2.48 2.44 c0.48 0.48 0.72 1.12 0.72 1.8 l0 6.56 c0 0.68 -0.24 1.32 -0.72 1.8 l-0.64 0.64 l0.64 0.64 c0.48 0.48 0.72 1.12 0.72 1.8 l0 6.56 c0 0.68 -0.24 1.32 -0.72 1.8 l-2.48 2.44 c-0.48 0.48 -1.12 0.76 -1.8 0.76 l-14 0 l0 -28 z M32.058 17.12 l0 6.32 l7.84 0 l0.92 -0.96 l0 -4.4 l-0.92 -0.96 l-7.84 0 z M32.058 28.56 l0 6.32 l7.84 0 l0.92 -0.96 l0 -4.4 l-0.92 -0.96 l-7.84 0 z M63.956 17.12 l-3.68 0 l0 17.76 l3.68 0 l0 5.12 l-12.48 0 l0 -5.12 l3.68 0 l0 -17.76 l-3.68 0 l0 -5.12 l12.48 0 l0 5.12 z M87.694 17.12 l-6.56 0 l0 22.88 l-5.12 0 l0 -22.88 l-6.52 0 l0 -5.12 l18.2 0 l0 5.12 z"/>
  </g>
</svg>
